<svg width="336" height="302" viewBox="0 0 336 302" fill="none" xmlns="http://www.w3.org/2000/svg">
<g clip-path="url(#clip0_13917_275)">
<path fill-rule="evenodd" clip-rule="evenodd" d="M178.747 256.766C135.462 256.948 87.1464 248.521 63.5361 216.456C40.6602 185.388 59.7938 147.058 72.2838 112.178C84.0911 79.2044 95.5665 43.616 130.901 28.3275C168.796 11.9317 214.96 15.7126 252.056 34.3953C288.567 52.7833 312.175 86.0682 317.771 122.441C323.091 157.019 306.44 189.933 279.926 215.551C253.695 240.895 218.105 256.602 178.747 256.766Z" fill="#A5DEFF"/>
<ellipse rx="5.01874" ry="6.95977" transform="matrix(0.999995 -0.0030656 -0.0394553 0.999221 141.553 70.539)" fill="#0D070C"/>
<ellipse rx="5.01874" ry="6.95976" transform="matrix(-0.95818 0.286166 0.326647 0.945146 194.093 61.5592)" fill="#0D070C"/>
<path fill-rule="evenodd" clip-rule="evenodd" d="M164.599 41.8441C154.772 43.4017 136.365 50.0277 141.347 64.0707C144.687 73.4846 141.613 77.3418 138.29 81.5113C135.417 85.1166 132.358 88.9553 133.099 96.8217C133.771 103.967 136.717 108.601 139.657 113.226C143.697 119.581 147.727 125.92 145.832 138.736C143.215 156.45 150.831 204.567 154.966 226.411L191.072 221.078L164.599 41.8441ZM164.646 42.1558C174.503 40.806 194.04 41.8274 193.33 56.7111C192.857 66.6391 198.294 69.98 203.981 73.4747C208.952 76.529 214.113 79.7007 215.688 87.4896C217.16 94.7764 214.569 99.8441 211.971 104.924C208.615 111.487 205.248 118.07 210.622 129.485C218.249 145.685 224.869 193.95 227.226 216.057L191.119 221.39L164.646 42.1558Z" fill="white"/>
<ellipse rx="11.9042" ry="15.4282" transform="matrix(-0.857385 0.514676 0.599503 0.800373 145.054 102.891)" fill="url(#paint0_radial_13917_275)"/>
<ellipse rx="11.7459" ry="15.667" transform="matrix(-0.933552 -0.358441 -0.467596 0.883942 203.216 95.0752)" fill="url(#paint1_radial_13917_275)"/>
<path d="M222.362 179.288C197.713 193.048 162.942 194.533 149.183 191.488L150.464 198.975C181.842 207.797 212.09 194.326 223.621 186.713L222.362 179.288Z" fill="#005BBB"/>
<path d="M223.658 186.468C194.329 204.056 164.205 201.767 150.383 198.863L151.528 204.71C183.09 213.21 213.433 202.484 224.788 194.75L223.658 186.468Z" fill="#FFD500"/>
<ellipse opacity="0.5" rx="2.21286" ry="3.18464" transform="matrix(0.974542 0.224203 -0.318753 0.947838 193.458 59.3279)" fill="white"/>
<ellipse opacity="0.5" rx="2.21286" ry="3.18464" transform="matrix(0.974542 0.224203 -0.318753 0.947838 140.883 67.8037)" fill="white"/>
<path d="M187.297 206.81C136.452 211.178 138.085 271.518 145.258 301.143C200.675 322.802 306.245 348.991 285.184 280.475C264.122 211.959 224.498 200.845 207.319 203.853L187.297 206.81Z" fill="white"/>
<path d="M221.994 178.017C240.533 177.706 269.724 185.262 239.259 214.998C209.02 244.515 201.082 264.007 215.338 261.24C215.441 261.216 215.548 261.194 215.659 261.175C215.551 261.198 215.444 261.22 215.338 261.24C211.35 262.177 212.401 266.857 210.161 268.53C194.628 269.39 197.081 251.272 237.055 214.437C246.827 204.572 255.396 184.482 222.996 182.876L221.994 178.017Z" fill="#FFD500"/>
<path d="M220.585 170.987C239.767 168.79 260.295 169.02 234.451 201.376C208.872 233.399 230.972 232.703 245.627 228.257C245.767 228.208 245.918 228.161 246.08 228.117C245.93 228.164 245.779 228.211 245.627 228.257C241.992 229.525 245.737 232.341 243.761 234.193C227.806 236.623 203.127 233.397 232.053 201.049C240.28 190.348 255.41 173.271 221.47 174.996L220.585 170.987Z" fill="#005BBB"/>
<path d="M149.772 80.5037C145.429 58.9767 168.644 51.8466 168.583 52.1295C193.292 54.2092 193.907 73.2268 193.47 76.1195C192.266 84.0804 207.743 88.6746 204.588 97.251C201.433 105.827 203.933 122.351 202.08 134.41C200.597 144.057 196.087 146.336 194.017 146.271C192.308 146.568 191.195 146.61 187.614 147.216C173.429 149.619 170.125 133.396 155.089 116.506C140.054 99.6164 155.2 107.412 149.772 80.5037Z" fill="#FF6B0A"/>
<path d="M186.44 139.268C174.928 140.076 167.982 118.477 165.947 107.577C172.744 105.193 187.631 101.062 192.805 103.61C199.273 106.795 200.831 138.257 186.44 139.268Z" fill="#1F0C02"/>
<path d="M188.338 136.121C196.177 134.071 191.406 119.158 188.04 111.958L172.566 114.243C174.557 122.39 180.499 138.171 188.338 136.121Z" fill="#724B3B"/>
<path d="M186.648 130.781C188.14 129.508 183.503 114.738 180.998 107.513L177.646 108.333C180.024 116.346 185.155 132.055 186.648 130.781Z" fill="#6B3B28"/>
<path d="M160.08 99.8437C165.646 84.37 159.989 77.0834 156.466 75.3744C166.374 59.7689 181.345 65.8071 187.592 70.7768C180.593 86.1437 185.694 73.9238 194.764 94.7207C202.019 111.358 189.834 119.178 182.834 121.008C172.93 120.401 154.514 115.317 160.08 99.8437Z" fill="#ED5E00"/>
<path d="M196.803 101.811C175.386 82.8057 164.284 100.668 161.411 111.975C163.715 116.094 171.316 123.667 183.282 121.007C195.248 118.348 197.282 107.102 196.803 101.811Z" fill="#FF8E3D"/>
<path d="M176.073 102.08C175.6 100.262 174.382 96.9513 173.289 98.2486C172.196 99.5459 174.689 101.344 176.073 102.08Z" fill="#FD7411"/>
<path d="M180.083 101.494C179.676 99.6621 179.257 96.1759 180.834 96.8882C182.412 97.6005 180.991 100.256 180.083 101.494Z" fill="#FD7411"/>
<path d="M180.462 20.7906L184.205 43.2473C173.851 56.7085 152.484 55.1241 143.094 52.6493L139.591 29.6964L180.462 20.7906Z" fill="#373500"/>
<path d="M184.205 43.2472C182.61 55.8603 171.809 74.3136 143.121 52.4756L184.205 43.2472Z" fill="#373500"/>
<ellipse rx="20.943" ry="3.90074" transform="matrix(0.978303 -0.207181 0.147416 0.989075 160.075 25.2409)" fill="#373500"/>
<path d="M180.462 20.7906L184.205 43.2473C173.851 56.7085 152.484 55.1241 143.094 52.6493L139.591 29.6964C139.591 29.6964 142.991 29.756 145.129 29.3171C147.69 28.7912 151.464 26.9285 151.464 26.9285L165.806 44.4621L169.278 22.2436C169.278 22.2436 172.802 23.473 175.098 23.1531C177.322 22.8431 180.462 20.7906 180.462 20.7906Z" fill="#4B4800"/>
<path d="M158.184 27.7453C158.308 27.7793 158.41 27.8016 158.505 27.8389C159.291 28.1265 159.831 28.5774 160.176 29.3468C160.322 29.6728 160.431 30.0226 160.554 30.3557C160.662 30.651 160.769 30.9405 160.883 31.234C160.913 31.3098 160.91 31.3473 160.823 31.3873C160.635 31.4651 160.494 31.6076 160.46 31.8197C160.427 32.0073 160.494 32.157 160.628 32.2608C160.764 32.3702 160.93 32.3786 161.1 32.3306C161.185 32.3037 161.233 32.2518 161.259 32.1582C161.468 31.4449 161.52 30.7327 161.437 30.0146C161.365 29.4209 161.181 28.8629 161.021 28.3034C160.931 27.984 160.852 27.6554 160.751 27.3396C160.69 27.1391 160.649 26.9447 160.651 26.7303C160.654 26.5159 160.7 26.3059 160.801 26.0969C160.985 26.2034 161.124 26.3543 161.212 26.5401C161.291 26.7163 161.351 26.9111 161.402 27.0963C161.457 27.2984 161.484 27.5096 161.526 27.7097C161.637 28.242 161.743 28.7761 161.871 29.3031C162.09 30.1796 162.509 30.9314 163.137 31.5437C163.218 31.6278 163.304 31.6311 163.408 31.5858C163.673 31.4772 163.825 31.2032 163.763 30.9482C163.706 30.7102 163.445 30.5611 163.177 30.6338C163.08 30.6586 163.066 30.6264 163.058 30.5435C163.008 30.1137 162.952 29.6801 162.896 29.2522C162.839 28.764 162.753 28.2847 162.837 27.7819C162.949 27.1178 163.226 26.6088 163.677 26.0932C163.711 26.058 163.745 26.0228 163.793 25.9709C163.806 26.0219 163.814 26.0559 163.822 26.0899C164.355 28.2828 164.865 30.3849 165.397 32.5778C165.428 32.7024 165.428 32.7024 165.309 32.74C164.864 32.8813 164.413 33.0244 163.968 33.1658C163.889 33.1908 163.861 33.2242 163.863 33.3089C163.879 33.9507 163.696 34.5459 163.297 35.0755C163.214 35.187 163.149 35.3177 163.075 35.4387C162.75 35.2246 162.345 35.1333 162.047 34.8556C161.804 34.6278 161.59 34.3722 161.448 34.0632C161.414 33.995 161.374 33.983 161.307 34.0045C160.85 34.1494 160.399 34.2925 159.943 34.4374C159.864 34.4625 159.826 34.4562 159.804 34.3655C159.269 32.1614 158.754 30.0422 158.219 27.838C158.205 27.8303 158.199 27.8076 158.184 27.7453ZM158.925 28.5964C158.915 28.6057 158.898 28.611 158.888 28.6203C158.898 28.66 158.908 28.6996 158.917 28.7393C159.175 29.7989 159.411 30.7735 159.669 31.833C159.711 32.0087 159.711 32.0087 159.892 31.9515C159.959 31.93 159.989 31.9023 159.989 31.8289C160.006 31.5978 160.103 31.3962 160.264 31.2352C160.332 31.1648 160.331 31.1102 160.3 31.0345C160.155 30.6596 160.002 30.2808 159.873 29.9006C159.735 29.5052 159.57 29.2278 159.281 28.9352C159.166 28.813 159.044 28.7113 158.925 28.5964ZM163.573 27.1393C163.562 27.1429 163.555 27.139 163.544 27.1426C163.521 27.1987 163.498 27.2547 163.481 27.309C163.343 27.7188 163.228 28.0423 163.269 28.4625C163.325 28.9939 163.393 29.5218 163.455 30.0514C163.46 30.123 163.488 30.163 163.565 30.1812C163.777 30.2298 163.95 30.3398 164.074 30.5262C164.131 30.6118 164.198 30.6148 164.338 30.54C164.424 30.4943 164.374 30.4371 164.361 30.3861C164.1 29.3095 163.859 28.3179 163.596 27.2357C163.594 27.1999 163.586 27.1659 163.573 27.1393ZM161.134 32.8202C161.105 32.8235 161.07 32.8286 161.027 32.8298C160.653 32.8632 160.334 32.7752 160.132 32.4426C160.103 32.397 160.075 32.3815 160.026 32.4033C159.986 32.4158 159.947 32.4283 159.907 32.4408C159.851 32.4587 159.834 32.4885 159.848 32.5452C159.951 32.9702 160.055 33.4008 160.164 33.824C160.17 33.8467 160.227 33.8833 160.25 33.8762C160.555 33.7852 160.865 33.6869 161.168 33.5846C161.191 33.5774 161.226 33.5235 161.226 33.499C161.197 33.2765 161.167 33.0541 161.134 32.8202ZM163.546 32.0546C163.624 32.2741 163.704 32.4804 163.781 32.6943C163.801 32.7548 163.847 32.7405 163.892 32.7262C164.179 32.6349 164.459 32.5398 164.748 32.4543C164.838 32.4256 164.858 32.3827 164.832 32.2995C164.734 31.9216 164.648 31.5402 164.554 31.1549C164.511 30.9793 164.511 30.9793 164.337 31.0347C164.286 31.0508 164.241 31.0651 164.239 31.1328C164.219 31.4993 164.021 31.7576 163.728 31.9541C163.665 31.9926 163.599 32.0197 163.546 32.0546ZM161.964 30.836C161.912 31.3223 161.857 31.7974 161.711 32.271C161.915 32.3345 162.106 32.3959 162.301 32.4499C162.328 32.4598 162.381 32.4306 162.405 32.4046C162.53 32.2674 162.64 32.1225 162.765 31.9853C162.803 31.9427 165.807 31.9108 165.767 31.8687C165.474 31.5893 162.243 31.26 162.025 30.9141C162.001 30.8911 161.982 30.8607 161.964 30.836ZM161.907 33.8262C161.956 34.128 162.409 34.6189 162.613 34.6335C162.617 34.6261 162.621 34.6186 162.621 34.6186C162.55 34.324 162.484 34.0275 162.408 33.7403C162.402 33.7177 162.355 33.6962 162.331 33.6977C162.187 33.7311 162.048 33.7815 161.907 33.8262ZM163.089 34.4946C163.297 34.276 163.431 33.5803 163.337 33.3661C163.213 33.4055 163.078 33.4484 162.954 33.4878C162.88 33.511 162.865 33.5465 162.881 33.6145C162.939 33.8525 162.997 34.0905 163.055 34.3285C163.061 34.3812 163.074 34.4322 163.089 34.4946ZM161.995 33.3159C162.069 33.2927 162.149 33.2733 162.219 33.2387C162.242 33.2316 162.276 33.1719 162.266 33.1567C162.172 32.9181 161.962 32.7529 161.711 32.7714C161.658 32.7761 161.632 32.7964 161.634 32.851C161.648 33.0111 161.668 33.1695 161.684 33.3353C161.692 33.3938 161.732 33.4057 161.782 33.3896C161.849 33.3625 161.922 33.3392 161.995 33.3159ZM163.032 32.9868C163.1 32.9653 163.162 32.9456 163.229 32.9242C163.298 32.9084 163.331 32.8675 163.302 32.7974C163.251 32.6611 163.199 32.5248 163.142 32.3903C163.115 32.3259 163.077 32.3197 163.015 32.3638C162.815 32.4941 162.68 32.7872 162.728 33.01C162.734 33.0327 162.783 33.0598 162.807 33.0583C162.887 33.039 162.959 33.01 163.032 32.9868Z" fill="#FFD500"/>
</g>
<defs>
<radialGradient id="paint0_radial_13917_275" cx="0" cy="0" r="1" gradientUnits="userSpaceOnUse" gradientTransform="translate(11.9042 15.4282) rotate(90) scale(15.4282 11.9042)">
<stop stop-color="#FFBBBB"/>
<stop offset="1" stop-color="#FFBBBB" stop-opacity="0"/>
</radialGradient>
<radialGradient id="paint1_radial_13917_275" cx="0" cy="0" r="1" gradientUnits="userSpaceOnUse" gradientTransform="translate(11.7459 15.667) rotate(90) scale(15.667 11.7459)">
<stop stop-color="#FFBBBB"/>
<stop offset="1" stop-color="#FFBBBB" stop-opacity="0"/>
</radialGradient>
<clipPath id="clip0_13917_275">
<rect width="336" height="302" fill="white"/>
</clipPath>
</defs>
</svg>
